<?xml version="1.0" encoding="UTF-8"?>
<svg version="1.1" xmlns="http://www.w3.org/2000/svg" width="449" height="417">
<path d="M0 0 C4.45963904 0.88871139 8.77460382 2.12052254 13.125 3.4375 C14.95925537 3.98047729 14.95925537 3.98047729 16.83056641 4.53442383 C53.49995719 15.57219949 88.14083037 30.11076992 119 53 C119.60602051 53.44762695 120.21204102 53.89525391 120.83642578 54.35644531 C128.24463191 59.85663273 135.29473755 65.65776132 142 72 C142.87140625 72.80695313 143.7428125 73.61390625 144.640625 74.4453125 C166.361768 95.23554938 184.59096731 125.16491443 190 155 C190.92296875 154.52691406 191.8459375 154.05382812 192.796875 153.56640625 C197.17784035 151.33649146 201.58456192 149.16072707 206 147 C207.10746582 146.45496826 207.10746582 146.45496826 208.23730469 145.89892578 C228.76909301 135.90354266 251.41901863 127.73268269 274 124 C274.80679199 123.8654541 275.61358398 123.7309082 276.44482422 123.59228516 C307.21974446 118.62896374 338.54684218 117.70483101 369.625 119.75 C370.69113525 119.81155273 371.75727051 119.87310547 372.85571289 119.93652344 C380.17962322 120.51188401 383.82327665 122.0048037 389.1875 127.0625 C408.51757171 158.39054726 397.04511116 220.13047903 389.21386719 253.33300781 C380.1726583 290.61310625 362.57055726 321.40618636 336 349 C335.1656543 349.8672168 335.1656543 349.8672168 334.31445312 350.75195312 C327.27072467 358.02917534 320.18585175 364.99340995 312 371 C310.82244141 371.86818359 310.82244141 371.86818359 309.62109375 372.75390625 C307.11224149 374.55399768 304.56801516 376.28546108 302 378 C301.11699219 378.60328125 300.23398437 379.2065625 299.32421875 379.828125 C289.44023413 386.26907922 278.74315182 390.87532518 267.98779297 395.65380859 C265.25504506 396.88508592 262.54870335 398.15801407 259.84765625 399.45703125 C219.25538881 418.80349585 170.17228403 423.51497057 127 410 C124.98205317 409.03672922 122.97663707 408.04542139 121 407 C118.92905761 406.42687978 118.92905761 406.42687978 117 406.125 C112.54781028 405.10150811 110.22298708 403.22298708 107 400 C102.62652177 392.68777972 103.86615015 382.59669844 103.9375 374.375 C103.94201172 373.37082031 103.94652344 372.36664063 103.95117188 371.33203125 C103.96281033 368.88795529 103.9791576 366.4440118 104 364 C103.36151123 363.90847656 102.72302246 363.81695312 102.06518555 363.72265625 C67.17541752 358.4834883 35.56454085 339.7597669 10.53808594 315.49121094 C9.00685287 314.00664402 7.46085523 312.53863762 5.9140625 311.0703125 C-1.49917595 303.94156034 -7.86447647 296.24120616 -14 288 C-14.43054687 287.43023437 -14.86109375 286.86046875 -15.3046875 286.2734375 C-29.03776357 268.04590018 -37.84453635 248.44725937 -44.75 226.75 C-45.0195752 225.93200928 -45.28915039 225.11401855 -45.56689453 224.27124023 C-51.31129158 205.42940555 -52.67185662 186.13568869 -52.4375 166.5625 C-52.43034973 165.49294067 -52.42319946 164.42338135 -52.41583252 163.32141113 C-52.30721715 147.70351116 -51.8781603 132.38897751 -49 117 C-48.80132324 115.90059082 -48.60264648 114.80118164 -48.39794922 113.66845703 C-42.14539082 79.7172991 -32.19268187 47.0556911 -19.625 14.9375 C-19.22039551 13.89037842 -18.81579102 12.84325684 -18.39892578 11.7644043 C-17.81860596 10.31674683 -17.81860596 10.31674683 -17.2265625 8.83984375 C-16.89221191 7.99800537 -16.55786133 7.15616699 -16.21337891 6.28881836 C-12.30840231 -1.07720891 -7.61458856 -0.85625417 0 0 Z " fill="#FCFDFD" transform="translate(52,0)"/>
<path d="M0 0 C0.70252899 -0.00385712 1.40505798 -0.00771423 2.12887573 -0.01168823 C15.40602449 -0.04779661 15.40602449 -0.04779661 19.75 2.3125 C23.21742424 6.76838726 24.62442866 12.57498271 25.5 18.0625 C25.62068848 18.81708496 25.74137695 19.57166992 25.86572266 20.34912109 C28.14173855 36.64178932 27.38732787 53.46630241 25.4375 69.75 C25.32003418 70.74402832 25.20256836 71.73805664 25.08154297 72.76220703 C23.87270823 81.60383737 23.87270823 81.60383737 20.75 85.3125 C14.4274986 89.79610394 6.67925858 91.80618213 -0.71850586 93.81469727 C-32.51723112 102.58504632 -64.03145524 118.42249306 -92.25 135.3125 C-93.58466309 136.10672363 -93.58466309 136.10672363 -94.94628906 136.91699219 C-113.8572075 148.22504774 -131.78659803 160.89185029 -149.25 174.3125 C-149.85537598 174.7775293 -150.46075195 175.24255859 -151.08447266 175.72167969 C-174.59574986 193.8482592 -198.2039111 213.72258718 -217.5078125 236.3515625 C-220.21312949 239.39656055 -223.14020503 242.21102988 -226.0390625 245.0703125 C-228.7356639 247.80502841 -231.2524816 250.66323927 -233.7421875 253.5859375 C-234.23976562 254.15570313 -234.73734375 254.72546875 -235.25 255.3125 C-235.93449219 256.19808594 -235.93449219 256.19808594 -236.6328125 257.1015625 C-237.16648438 257.50117188 -237.70015625 257.90078125 -238.25 258.3125 C-240.85107422 257.88818359 -240.85107422 257.88818359 -243.25 257.3125 C-244.9494747 190.11788477 -223.04804938 122.8108115 -176.35546875 73.54296875 C-175.32183011 72.464689 -174.28664689 71.38788797 -173.25 70.3125 C-172.71584473 69.75643066 -172.18168945 69.20036133 -171.63134766 68.62744141 C-164.56778573 61.31198426 -157.3072279 54.54326878 -149.25 48.3125 C-148.34121094 47.58675781 -147.43242187 46.86101562 -146.49609375 46.11328125 C-105.55046548 14.1924037 -51.2520317 0.17826166 0 0 Z " fill="#2F6848" transform="translate(407.25,139.6875)"/>
<path d="M0 0 C2.34375 0.16967773 2.34375 0.16967773 5 1 C6.40625 3.28540039 6.40625 3.28540039 7.5 6.28515625 C7.91378906 7.37715332 8.32757813 8.46915039 8.75390625 9.59423828 C9.16511719 10.71813965 9.57632813 11.84204102 10 13 C10.80544571 15.02235504 11.61787748 17.04194265 12.4375 19.05859375 C12.8504834 20.08871582 13.2634668 21.11883789 13.68896484 22.18017578 C35.65404429 76.75337688 63.74100487 129.91859664 102 175 C102.8705081 176.04367369 103.74026349 177.08797553 104.609375 178.1328125 C110.86267099 185.62120393 117.350674 192.86194211 124 200 C122.95646394 203.26804951 121.81962867 206.44069619 120.51953125 209.6171875 C107.40552961 241.84016295 103.48346718 278.54462805 103 313 C96.52561188 309.95101489 90.67642751 306.31383366 84.75 302.3125 C83.81978027 301.68674072 82.88956055 301.06098145 81.93115234 300.41625977 C65.26212796 289.14118159 48.33648618 276.65443414 35.6875 260.8125 C33.36627124 257.91390977 31.04159695 255.04732749 28.58984375 252.2578125 C17.33578897 239.38074823 9.22619378 224.42301522 2 209 C1.5035498 207.95706787 1.5035498 207.95706787 0.99707031 206.89306641 C-9.0459302 185.687439 -14.93283832 164.09131916 -19 141 C-19.14840332 140.16388184 -19.29680664 139.32776367 -19.44970703 138.46630859 C-24.17069306 110.083816 -21.74389004 80.00667706 -16 52 C-15.77006348 50.87287598 -15.54012695 49.74575195 -15.30322266 48.58447266 C-7.43986809 11.15980214 -7.43986809 11.15980214 0 0 Z " fill="#2F6848" transform="translate(53,32)"/>
<path d="M0 0 C3.0625 0.1875 3.0625 0.1875 5.0625 2.1875 C5.4744201 7.32607536 4.63439438 11.32275306 2.97265625 16.16796875 C2.75306244 16.81419693 2.53346863 17.46042511 2.30722046 18.12623596 C1.5924426 20.21377789 0.8602703 22.29459491 0.125 24.375 C-0.24889359 25.44687561 -0.24889359 25.44687561 -0.63034058 26.54040527 C-4.48431218 37.57274435 -8.67890119 48.35094628 -13.80615234 58.86328125 C-15.00463713 61.32542522 -16.16816066 63.80257594 -17.33203125 66.28125 C-25.12235652 82.626112 -34.91379982 96.69926532 -46.9375 110.1875 C-47.39125 110.70296387 -47.845 111.21842773 -48.3125 111.74951172 C-61.18452647 126.3448173 -75.63524931 138.96335486 -92.97021484 148.00073242 C-94.97064525 149.09932888 -94.97064525 149.09932888 -96.43847656 150.69360352 C-117.08986569 171.27436086 -162.48385267 175.32259861 -190 175.4375 C-208.77237539 175.34671607 -231.16165524 174.60503642 -247.9375 165.1875 C-248.26953125 162.51953125 -248.26953125 162.51953125 -247.9375 159.1875 C-246.19629023 157.10594905 -244.68023461 155.58014142 -242.625 153.875 C-242.08174072 153.4013501 -241.53848145 152.9277002 -240.97875977 152.43969727 C-236.6220506 148.66986952 -232.14002738 145.04563179 -227.65234375 141.43359375 C-224.83076505 139.0991941 -222.13159288 136.66759402 -219.4375 134.1875 C-214.10763317 129.29364484 -208.56839611 124.72831238 -202.9375 120.1875 C-201.75423451 119.21342134 -200.57199947 118.23809 -199.390625 117.26171875 C-190.46038705 109.9034403 -181.31908777 102.87561628 -172.02734375 95.98046875 C-168.78684841 93.57567688 -165.57080532 91.14467259 -162.37890625 88.67578125 C-116.57611845 53.41281176 -62.65395165 19.60390742 -7.26953125 2.28125 C-0.39707928 0.02534549 -0.39707928 0.02534549 0 0 Z " fill="#2F6848" transform="translate(420.9375,241.8125)"/>
<path d="M0 0 C25.02363361 8.58230637 46.67449124 21.31333182 66.39038086 38.75732422 C67.25018555 39.49466797 68.10999023 40.23201172 68.99584961 40.99169922 C93.89155751 62.68144155 115.34576609 93.10259949 122.39038086 125.75732422 C121.15674805 126.68351562 121.15674805 126.68351562 119.89819336 127.62841797 C112.75315295 133.03157908 105.91035502 138.60125559 99.39038086 144.75732422 C98.44549805 145.61455078 97.50061523 146.47177734 96.52709961 147.35498047 C85.94810298 157.2018905 78.41688791 169.21235763 71.39038086 181.75732422 C67.50190095 180.2300206 65.62672902 177.88289789 63.07788086 174.63232422 C60.45442384 171.33487336 57.83460786 168.07654385 55.01538086 164.94482422 C49.86484136 159.10754612 45.13788345 152.92264721 40.39038086 146.75732422 C39.90907715 146.13293457 39.42777344 145.50854492 38.93188477 144.86523438 C11.51791817 109.16012499 -11.9597292 70.11409277 -33.05102539 30.40966797 C-35.20266752 26.36260335 -37.38657684 22.33730678 -39.61972046 18.3348999 C-40.62395149 16.53455676 -41.62243889 14.73114363 -42.61938477 12.92675781 C-43.87912536 10.65137529 -45.14953435 8.38185789 -46.43188477 6.11914062 C-46.99456055 5.0961084 -47.55723633 4.07307617 -48.13696289 3.01904297 C-48.6396167 2.12145264 -49.14227051 1.2238623 -49.66015625 0.29907227 C-50.78186955 -2.70379664 -50.65793412 -4.23890699 -49.60961914 -7.24267578 C-37.72963465 -13.18266802 -11.73545351 -3.75054217 0 0 Z " fill="#2F6848" transform="translate(113.609619140625,35.24267578125)"/>
<path d="M0 0 C0.66 0.33 1.32 0.66 2 1 C-2.27152492 4.95897432 -5.31251115 6.74875245 -11 8 C-8.83385197 5.69125289 -6.60793392 3.94709819 -3.9375 2.25 C-2.89916016 1.57710938 -2.89916016 1.57710938 -1.83984375 0.890625 C-1.23269531 0.59671875 -0.62554687 0.3028125 0 0 Z " fill="#DBE5DF" transform="translate(336,384)"/>
</svg>
